<svg xmlns="http://www.w3.org/2000/svg" version="1.1" xmlns:xlink="http://www.w3.org/1999/xlink" xmlns:svgjs="http://svgjs.dev/svgjs" width="1500" height="1500" viewBox="0 0 1500 1500"><rect width="1500" height="1500" fill="#000000"></rect><g transform="matrix(0.6666666666666666,0,0,0.6666666666666666,250.00007343750008,187.66666666666674)"><svg viewBox="0 0 320 360" data-background-color="#ffffff" preserveAspectRatio="xMidYMid meet" height="1687" width="1500" xmlns="http://www.w3.org/2000/svg" xmlns:xlink="http://www.w3.org/1999/xlink"><g id="tight-bounds" transform="matrix(1,0,0,1,0.000023499999997511622,0)"><svg viewBox="0 0 320 360" height="360" width="320"><g><svg></svg></g><g><svg viewBox="0 0 320 360" height="360" width="320"><g><path transform="translate(-74.99272,-51.79039) scale(4.65793,4.65793)" d="M20.6 59.9l0.8 1-0.4-1.3c-0.1-0.6-0.8 0.1-0.4 0.3M21.5 59.3c0.3 0.5 0.6 1 0.6 1.5 0 0.7 0.6 1 1.1 1.2-0.7-0.8-1.1-3-1.7-2.7M59.9 16.9c1.7 0 3.3-0.2 5.1 0.2 4.4 1.1 8.1 3.3 10.6 6.4l7 11.2c0.3 2.8 0.9 5.9 0.8 9.3 0.7 0 0.6-1 1.4-1.2-0.8 2-1.2 4.5-1.4 7.4-0.5-1.6 0-4 0.1-5.3-0.7 1.1-1.1 0.3-1.1-0.2 0.1-0.8-0.3-0.7-0.6-1-1.1-1-1.8-2.1-2.6-3.8 0.5-1.3 0.6-3.2-1-4.2-0.5-0.3-1.1-0.8-1.4-1.6-0.4-1.1-1.1-2.4-0.9-4.1 0.1-0.5-1.5 1.1-2.4 0.4-3.9-2.7-7.8-5.8-12.5-8.4-2.5 0-4.3-0.9-5.2-2-0.8-1-0.2-2.3 1-2.4 0.7 0 1.5-0.2 2.1 0.2 0.1-0.4 0.5-0.9 1-0.9M50 14.6l0.2 0.1c1 0.2 1.5 1.6 2.6 1.1 0 0.7 0.1 1.4-0.1 1.9-0.3 0.8-1.2 0.8-1.9 0.8-6.7-0.4-10.6 2.4-14.7 4.8-1.1 0.7-2.3 1.2-3.2 2.1-4.3 4-9 7.7-10.1 15.1l-0.9 8.2c-0.1 0.9-1.1 1.8-0.9 2.9l0.7 4.9c-0.7-0.7-1.1 0.2-0.9 0.6 0.1 0.3 0.5 1.3 1.1 0.4 0.8 1.5 1.6 4.4 2.7 5.7 3.4 4 7.8 7.6 11.4 11.2 0.9-0.2 1.6-0.2 1.8-0.8 0.3 0.6-0.3 1.2-0.8 1.3 1.6 1 3.4 1.9 5.8 2.1 3.1 0.2 6 0.7 8.7 1.4 1.4-0.4 2.8-0.6 4.3-0.7 0.5 0 0.8-0.8 1.4-1l0.1-1c0.6 0.9 0.5-0.3 0.1-0.9 0.7 0.6 0.9 1.1 1.2 1.5 0-0.3 0.8-1.4 0.8-0.1l0.2-1.3c0.3-0.2 0.4 1.1 0.7 0.2 0.3-0.9 0.9-0.2 1.5-0.5-0.2 0.4-0.1 1.2 0.6 0.7l0.8-0.7c0.5 1.2 1.3 0.7 1.7 0.5 4.4-2.8 8.8-6.1 13-9.4l-0.1 1.3 0.5-1.6c0.5 0.5 0.9 0.1 1.1-0.2 0.6-1 1.4-2 2.7-2.9-1.6 4.3-3.5 7.7-5.9 10.5l-1 1.2c0 0.7-0.2 1.6-1 1.7-0.4 0.1-1.2-0.2-1.8 0.4-0.3 0.4 0.7 1.2-0.1 0.6-0.7-0.5-1.4 0-2.2 0.2-0.6 0.2 0.4 0.8 0.6 1.2 0.2 0.4 0.4 0.8 0.3 1.3l-1.1-1.2c-1.3 0.7-2.1 2-3.2 3-0.5 0.4-0.3 1.1-0.3 1.7-0.7 0-1.5-0.2-1.9 0.2-0.3 0.4-0.2 1-0.2 1.6-1-0.1-1.1-1.6-2-1.3-0.9 0.2-1.9 0.3-2.7 0.8 0.6 1.2-1 0.5-0.8 0.7-1.5-0.9-2.8-1.6-4.4-1-3.4-1.1-7.6-0.6-10.7-0.2 0-0.5 0.1-1-0.1-1.1-0.2 0.5-0.8 0.3-0.7 0.3-1.9-1.3-3.8-2.1-5.8-3.2-1.8 0.2-3.5-0.7-4-1.2-1.4-1.3-3-0.6-4.3-0.9-2.8-0.7-3.8-3.6-4.1-5.6-0.2-1-1-1.4-1.3-1.3-1.3-4.2-3.3-8-4.9-11.9-0.4-1-0.3-2-0.3-3.1 0.5 0.2 1 0.1 0.9-0.6-0.5-3.3-1.7-5.8-3-8.2 0.7-3.4 0.8-7.4 2.4-10.4 1.4-2.7 4-4.1 5.8-6.4 0.6-0.8 0.6-1.9 1.2-2.6 2-2 4-4.1 6.2-5.9 1-0.8 2.2 0 3.7-0.3 0.5-1.8 2.5-3.4 4.4-2.9 0.8 0.2 2.4-1.9 2.9-2.1 0.8-0.3 0.4 0.8 0.4 1.5 1.9-1.5 4.5-2.3 6.9-3.2" fill="#ffffff" fill-rule="nonzero" stroke="none" stroke-width="1" stroke-linecap="butt" stroke-linejoin="miter" stroke-miterlimit="10" stroke-dasharray="" stroke-dashoffset="0" font-family="none" font-weight="none" font-size="none" text-anchor="none" style="mix-blend-mode: normal" data-fill-palette-color="tertiary"></path></g><g transform="matrix(1,0,0,1,119.5567056070083,90)"><svg viewBox="0 0 80.88658878598342 180" height="180" width="80.88658878598342"><g><svg viewBox="0 0 80.88658878598342 180" height="180" width="80.88658878598342"><g><svg viewBox="0 0 143.33333333333334 318.96511383690347" height="180" width="80.88658878598342"><g transform="matrix(1,0,0,1,0,138.96511383690344)"><svg viewBox="0 0 143.33333333333334 180" height="180" width="143.33333333333334"><g id="textblocktransform"><svg viewBox="0 0 143.33333333333334 180" height="180" width="143.33333333333334" id="textblock"><g><svg viewBox="0 0 143.33333333333334 180" height="180" width="143.33333333333334"><g transform="matrix(1,0,0,1,0,0)"><svg width="143.33333333333334" viewBox="1.6 -23.8 19.349999999999998 24.3" height="180" data-palette-color="#ff908b"><path d="M8.3 0.5Q7.85 0.5 7.68 0.28 7.5 0.05 7.43-0.7 7.35-1.45 7.35-2.5L7.35-2.5Q7.35-6.05 7-10.6L7-10.6Q6.55-15.75 5.93-17.85 5.3-19.95 4.35-19.95L4.35-19.95Q3.7-19.95 3.4-19.35 3.1-18.75 2.6-17.15L2.6-17.15Q2.4-16.3 2-16.3L2-16.3Q1.6-16.3 1.6-17.05L1.6-17.05Q1.6-18.3 2.18-19.9 2.75-21.5 3.78-22.65 4.8-23.8 6.1-23.8L6.1-23.8Q8.4-23.8 9.33-20.55 10.25-17.3 10.65-12.05L10.65-12.05Q10.9-8.75 10.98-7.4 11.05-6.05 11.1-5.7L11.1-5.7Q11.15-4.85 11.55-4.85L11.55-4.85Q12.5-4.85 14-6.98 15.5-9.1 16.63-11.93 17.75-14.75 17.75-16.75L17.75-16.75Q17.75-17.65 17.53-18.2 17.3-18.75 16.9-19.3 16.5-19.85 16.5-20.15L16.5-20.15Q16.5-20.9 17.7-22.35 18.9-23.8 19.55-23.8L19.55-23.8Q20.05-23.8 20.5-22.93 20.95-22.05 20.95-20.6L20.95-20.6Q20.95-17.3 18.7-12.23 16.45-7.15 13.45-3.33 10.45 0.5 8.3 0.5L8.3 0.5Z" opacity="1" transform="matrix(1,0,0,1,0,0)" fill="#ffffff" class="wordmark-text-0" data-fill-palette-color="primary" id="text-0"></path></svg></g></svg></g></svg></g></svg></g><g transform="matrix(1,0,0,1,27.376666666666672,0)"><svg viewBox="0 0 88.58 112.69879383690345" height="112.69879383690345" width="88.58"><g><svg xmlns="http://www.w3.org/2000/svg" xmlns:xlink="http://www.w3.org/1999/xlink" version="1.1" x="0" y="0" viewBox="14.629999999999995 5 70.7390002020544 90" enable-background="new 0 0 100 100" xml:space="preserve" height="112.69879383690345" width="88.58" class="icon-icon-0" data-fill-palette-color="accent" id="icon-0"><g fill="#ff908b" data-fill-palette-color="accent"><path d="M59.875 72.678H40.31c-2.033 0-3.688 1.654-3.688 3.688v2.569c0 2.033 1.654 3.688 3.688 3.688h19.565c2.033 0 3.688-1.654 3.688-3.688v-2.569C63.563 74.333 61.908 72.678 59.875 72.678zM51 74.678h3.542v5.944H51V74.678zM49 80.622h-3.357v-5.944H49V80.622zM38.622 78.935v-2.569c0-0.931 0.757-1.688 1.688-1.688h3.333v5.944H40.31C39.379 80.622 38.622 79.865 38.622 78.935zM61.563 78.935c0 0.931-0.757 1.688-1.688 1.688h-3.333v-5.944h3.333c0.931 0 1.688 0.757 1.688 1.688V78.935z" fill="#ffffff" data-fill-palette-color="accent"></path><path d="M34.266 22.735c0.552 0 1-0.448 1-1C35.266 13.61 41.875 7 50 7s14.734 6.61 14.734 14.735c0 0.552 0.448 1 1 1s1-0.448 1-1C66.734 12.507 59.228 5 50 5s-16.734 7.507-16.734 16.735C33.266 22.287 33.713 22.735 34.266 22.735z" fill="#ffffff" data-fill-palette-color="accent"></path><path d="M50 10.912c-5.967 0-10.822 4.855-10.822 10.823 0 0.552 0.448 1 1 1s1-0.448 1-1c0-4.865 3.958-8.823 8.822-8.823s8.822 3.958 8.822 8.823c0 0.552 0.448 1 1 1s1-0.448 1-1C60.822 15.767 55.967 10.912 50 10.912z" fill="#ffffff" data-fill-palette-color="accent"></path><path d="M48.721 61.234c0-5.514-4.486-10-10-10s-10 4.486-10 10 4.486 10 10 10S48.721 66.748 48.721 61.234zM30.721 61.234c0-4.411 3.589-8 8-8s8 3.589 8 8-3.589 8-8 8S30.721 65.645 30.721 61.234z" fill="#ffffff" data-fill-palette-color="accent"></path><path d="M35.935 57.492c0.172 0 0.347-0.044 0.506-0.138 1.353-0.796 3.126-0.812 4.492-0.04 0.479 0.271 1.091 0.103 1.363-0.378 0.271-0.48 0.103-1.091-0.378-1.363-1.975-1.117-4.534-1.095-6.491 0.057-0.476 0.28-0.635 0.894-0.354 1.369C35.258 57.316 35.592 57.492 35.935 57.492z" fill="#ffffff" data-fill-palette-color="accent"></path><path d="M40.979 65.127c-0.478 0.277-0.64 0.89-0.362 1.367 0.186 0.319 0.521 0.498 0.866 0.498 0.17 0 0.343-0.043 0.501-0.135 1.997-1.161 3.238-3.315 3.238-5.623 0-0.008 0-0.08-0.001-0.087-0.013-0.548-0.472-0.992-1.011-0.945-0.548 0.006-0.988 0.484-0.988 1.032C43.221 62.832 42.362 64.324 40.979 65.127z" fill="#ffffff" data-fill-palette-color="accent"></path><path d="M36.487 65.141c-1.389-0.796-2.257-2.283-2.266-3.881-0.003-0.55-0.45-0.994-1-0.994-0.002 0-0.004 0-0.006 0-0.552 0.003-0.997 0.454-0.994 1.006 0.013 2.308 1.267 4.455 3.271 5.604 0.157 0.09 0.328 0.132 0.497 0.132 0.347 0 0.684-0.18 0.869-0.502C37.132 66.027 36.966 65.416 36.487 65.141z" fill="#ffffff" data-fill-palette-color="accent"></path><path d="M41.677 61.234c0-1.63-1.326-2.956-2.956-2.956s-2.956 1.326-2.956 2.956 1.326 2.956 2.956 2.956S41.677 62.864 41.677 61.234z" fill="#ffffff" data-fill-palette-color="accent"></path><path d="M61.279 51.234c-5.514 0-10 4.486-10 10s4.486 10 10 10 10-4.486 10-10S66.793 51.234 61.279 51.234zM61.279 69.234c-4.411 0-8-3.589-8-8s3.589-8 8-8 8 3.589 8 8S65.69 69.234 61.279 69.234z" fill="#ffffff" data-fill-palette-color="accent"></path><path d="M58.492 57.491c0.172 0 0.347-0.044 0.506-0.138 0.688-0.405 1.475-0.619 2.278-0.619 0 0 0.001 0 0.002 0 0.776 0 1.541 0.201 2.211 0.58 0.482 0.271 1.09 0.102 1.363-0.378 0.271-0.481 0.103-1.091-0.378-1.363-0.971-0.549-2.076-0.839-3.195-0.839-0.001 0-0.002 0-0.003 0-1.159 0-2.298 0.31-3.292 0.896-0.476 0.28-0.635 0.894-0.354 1.369C57.816 57.315 58.149 57.491 58.492 57.491z" fill="#ffffff" data-fill-palette-color="accent"></path><path d="M59.045 65.141c-1.389-0.796-2.257-2.283-2.266-3.88-0.003-0.551-0.45-0.995-1-0.995-0.002 0-0.004 0-0.005 0-0.552 0.003-0.998 0.453-0.995 1.005 0.013 2.308 1.266 4.456 3.271 5.605 0.157 0.09 0.328 0.132 0.497 0.132 0.347 0 0.684-0.18 0.869-0.502C59.689 66.027 59.524 65.416 59.045 65.141z" fill="#ffffff" data-fill-palette-color="accent"></path><path d="M66.767 60.202c-0.548 0.006-0.988 0.484-0.988 1.032 0 1.598-0.859 3.09-2.243 3.894-0.478 0.277-0.64 0.89-0.362 1.367 0.186 0.319 0.521 0.498 0.866 0.498 0.17 0 0.343-0.043 0.501-0.135 1.998-1.161 3.238-3.315 3.238-5.623 0-0.008 0-0.08-0.001-0.087-0.012-0.543-0.456-0.945-0.998-0.945C66.775 60.202 66.771 60.202 66.767 60.202z" fill="#ffffff" data-fill-palette-color="accent"></path><path d="M64.234 61.234c0-1.63-1.326-2.956-2.956-2.956s-2.956 1.326-2.956 2.956 1.326 2.956 2.956 2.956S64.234 62.864 64.234 61.234z" fill="#ffffff" data-fill-palette-color="accent"></path><path d="M21.111 67.043c-0.552 0-1 0.448-1 1v4.075c0 0.552 0.448 1 1 1s1-0.448 1-1v-4.075C22.111 67.491 21.664 67.043 21.111 67.043z" fill="#ffffff" data-fill-palette-color="accent"></path><path d="M77.098 60.234h-0.604v-5.223c0-7.168-5.832-13-13-13h-4.268c-0.464-4.268-3.862-7.666-8.13-8.131v-7.368c2.18-0.501 3.814-2.448 3.814-4.777 0-2.708-2.203-4.91-4.91-4.91s-4.911 2.203-4.911 4.91c0 2.398 1.731 4.393 4.007 4.819v7.326c-4.265 0.464-7.66 3.857-8.129 8.131h-4.462c-7.168 0-13 5.832-13 13v5.223h-0.604c-4.561 0-8.271 3.71-8.271 8.271v3.207c0 4.553 3.71 8.257 8.271 8.257h0.604V82c0 7.168 5.832 13 13 13h26.989c7.168 0 13-5.832 13-13v-2.031h0.604c4.561 0 8.271-3.704 8.271-8.257v-3.207C85.37 63.944 81.659 60.234 77.098 60.234zM50 18.824c1.604 0 2.91 1.306 2.91 2.91 0 1.605-1.306 2.911-2.91 2.911M50.096 35.823c3.623 0 6.62 2.697 7.11 6.188H50l-0.001-6.187C49.999 35.823 50.064 35.823 50.096 35.823zM22.902 77.969c-0.268 0-0.531-0.023-0.791-0.055v-1.721c0-0.552-0.448-1-1-1s-1 0.448-1 1v1.115c-2.06-1.027-3.481-3.146-3.481-5.595v-3.207c0-2.455 1.421-4.579 3.481-5.608v1.071c0 0.552 0.448 1 1 1s1-0.448 1-1v-1.679c0.26-0.033 0.522-0.055 0.791-0.055h0.604v15.735H22.902zM74.495 82c0 6.065-4.935 11-11 11H36.505c-6.065 0-11-4.935-11-11V55.011c0-6.065 4.935-11 11-11h26.989c6.065 0 11 4.935 11 11V82zM83.37 71.712c0 2.449-1.421 4.568-3.481 5.595v-1.115c0-0.552-0.448-1-1-1s-1 0.448-1 1v1.721c-0.26 0.033-0.522 0.055-0.791 0.055h-0.604V62.234h0.604c0.268 0 0.531 0.023 0.791 0.055v1.679c0 0.552 0.448 1 1 1s1-0.448 1-1v-1.071c2.06 1.029 3.481 3.153 3.481 5.608V71.712z" fill="#ffffff" data-fill-palette-color="accent"></path><path d="M78.889 67.043c-0.552 0-1 0.448-1 1v4.075c0 0.552 0.448 1 1 1s1-0.448 1-1v-4.075C79.889 67.491 79.441 67.043 78.889 67.043z" fill="#ffffff" data-fill-palette-color="accent"></path></g></svg></g></svg></g><g></g></svg></g></svg></g></svg></g></svg></g><defs></defs></svg><rect width="320" height="360" fill="none" stroke="none" visibility="hidden"></rect></g></svg></g></svg>